<svg width="600" height="600" viewBox="0 0 600 600" fill="none" xmlns="http://www.w3.org/2000/svg">
<path d="M362.5 139H427V170.5H458V234.5H492.5V364H458V427.5H362.5V459.5H233V427.5H170V364H139V234.5H170V139H233V204.5H203V234.5H170V364H203V396H233V427.5H362.5V396H392.5V364H427V234.5H392.5V204.5H362.5V139Z" fill="#3E1E73"/>
<path d="M330 107H297.5V266.5H330V107Z" fill="#3E1E73"/>
<path d="M297.5 107H266.5V300H330V266.5H297.5V107Z" fill="#DD1111"/>
<path d="M362 427.5H426V459.5H362V493.5H234V459.5H170V427.5H139V364L107 365V235.5H139V170.5H170V235.5H139V364H170V427.5H234V459.5H362V427.5Z" fill="#DD1111"/>
</svg>
